static_grf.mot
version=1
nRows=27
nColumns 19
inDegrees=yes
endheader
time	1_ground_force_vx	1_ground_force_vy	1_ground_force_vz	1_ground_force_px	1_ground_force_py	1_ground_force_pz	1_ground_torque_x	1_ground_torque_y	1_ground_torque_z	2_ground_force_vx	2_ground_force_vy	2_ground_force_vz	2_ground_force_px	2_ground_force_py	2_ground_force_pz	2_ground_torque_x	2_ground_torque_y	2_ground_torque_z
            1.347500	           -0.969207	          288.503552	          -17.103463	           -0.247583	            0.006224	           -0.406069	           -0.004655	            1.385667	           -0.082147	           -0.583660	          254.795517	           19.680472	           -0.247504	            0.005554	           -0.687503	            0.002173	           -0.948520	           -0.073264
            1.348000	           -1.060941	          288.143199	          -17.150638	           -0.247623	            0.006225	           -0.406461	           -0.004953	            1.345069	           -0.080060	           -0.397028	          254.981171	           19.446408	           -0.247488	            0.005555	           -0.687833	            0.001528	           -0.981300	           -0.074840
            1.348500	           -1.106915	          288.864253	          -17.147432	           -0.247140	            0.006224	           -0.406150	           -0.005130	            1.338815	           -0.079474	           -0.398939	          255.532954	           19.636092	           -0.247612	            0.005555	           -0.687854	            0.001466	           -0.939224	           -0.072173
            1.349000	           -1.152740	          288.143378	          -17.196266	           -0.247644	            0.006223	           -0.405882	           -0.005221	            1.305105	           -0.077888	           -0.209649	          254.982015	           19.399401	           -0.247565	            0.005554	           -0.687762	            0.000799	           -0.971588	           -0.073920
            1.349500	           -1.015571	          288.864861	          -17.285227	           -0.247570	            0.006222	           -0.405713	           -0.004857	            1.381434	           -0.082663	           -0.212972	          255.902780	           19.402686	           -0.247417	            0.005557	           -0.688361	            0.000869	           -1.044031	           -0.079159
            1.350000	           -0.969677	          287.963768	          -17.335062	           -0.247803	            0.006226	           -0.406581	           -0.004658	            1.383288	           -0.083272	           -0.446392	          255.716424	           19.777553	           -0.247392	            0.005557	           -0.688252	            0.001558	           -0.892410	           -0.069021
            1.350500	           -1.015358	          288.323898	          -17.241690	           -0.247670	            0.006223	           -0.406053	           -0.004738	            1.345337	           -0.080451	           -0.304534	          255.348817	           19.729251	           -0.247389	            0.005555	           -0.687677	            0.001167	           -0.978583	           -0.075609
            1.351000	           -1.244606	          288.504089	          -17.240348	           -0.247635	            0.006224	           -0.406158	           -0.005731	            1.328409	           -0.079383	           -0.258410	          255.533629	           19.589104	           -0.247293	            0.005557	           -0.688151	            0.001040	           -1.028429	           -0.078839
            1.351500	           -1.198242	          288.142780	          -17.058584	           -0.247711	            0.006225	           -0.406515	           -0.005585	            1.342966	           -0.079506	           -0.539592	          255.533284	           19.401511	           -0.247454	            0.005555	           -0.687852	            0.002086	           -0.987818	           -0.075001
            1.352000	           -1.199057	          288.865022	          -17.330628	           -0.247412	            0.006223	           -0.405853	           -0.005533	            1.332860	           -0.079966	           -0.113934	          254.429764	           19.444318	           -0.247271	            0.005555	           -0.687596	            0.000481	           -1.075162	           -0.082167
            1.352500	           -1.015065	          287.962973	          -17.151524	           -0.247567	            0.006226	           -0.406620	           -0.004631	            1.313846	           -0.078255	           -0.444542	          255.165173	           19.447085	           -0.247545	            0.005556	           -0.688158	            0.001749	           -1.003718	           -0.076497
            1.353000	           -1.015082	          288.683839	          -17.102576	           -0.247653	            0.006222	           -0.405714	           -0.004756	            1.352621	           -0.080134	           -0.398919	          255.532787	           19.683020	           -0.247305	            0.005556	           -0.688001	            0.001532	           -0.981344	           -0.075590
            1.353500	           -1.014741	          288.683249	          -16.965009	           -0.247723	            0.006223	           -0.405954	           -0.004719	            1.342461	           -0.078892	           -0.303225	          254.980673	           19.681009	           -0.247341	            0.005557	           -0.688129	            0.001150	           -0.967238	           -0.074658
            1.354000	           -1.106346	          288.863270	          -16.918152	           -0.247404	            0.006224	           -0.406050	           -0.005134	            1.340553	           -0.078514	           -0.397028	          254.981171	           19.446408	           -0.247572	            0.005554	           -0.687612	            0.001472	           -0.945173	           -0.072085
            1.354500	           -1.428044	          288.864584	          -17.238347	           -0.247452	            0.006224	           -0.406167	           -0.006505	            1.315787	           -0.078521	           -0.255772	          254.797203	           19.539548	           -0.247355	            0.005556	           -0.687877	            0.000967	           -0.962909	           -0.073842
            1.355000	           -1.106784	          288.143191	          -17.150524	           -0.247626	            0.006226	           -0.406592	           -0.005246	            1.365770	           -0.081292	           -0.258451	          255.533964	           19.495248	           -0.247745	            0.005555	           -0.688077	            0.001009	           -0.997677	           -0.076115
            1.355500	           -1.014840	          289.224016	          -16.962690	           -0.247755	            0.006222	           -0.405737	           -0.004811	            1.370991	           -0.080407	           -0.391587	          253.506980	           19.722721	           -0.247642	            0.005551	           -0.686763	            0.001528	           -0.989046	           -0.076947
            1.356000	           -1.290563	          288.504276	          -17.286090	           -0.247577	            0.006224	           -0.406100	           -0.005910	            1.321134	           -0.079157	           -0.166745	          256.086755	           19.497179	           -0.247343	            0.005558	           -0.688539	            0.000653	           -1.003494	           -0.076401
            1.356500	           -1.061399	          289.405483	          -17.236938	           -0.247485	            0.006223	           -0.405880	           -0.005100	            1.390627	           -0.082825	           -0.633230	          255.532443	           19.542335	           -0.247542	            0.005556	           -0.688144	            0.002306	           -0.930601	           -0.071169
            1.357000	           -1.199218	          288.504884	          -17.423886	           -0.247883	            0.006225	           -0.406314	           -0.005580	            1.342406	           -0.081073	           -0.677442	          254.795848	           19.492799	           -0.247433	            0.005554	           -0.687576	            0.002525	           -0.949521	           -0.072642
            1.357500	           -1.198194	          288.503114	          -17.011183	           -0.247634	            0.006223	           -0.405928	           -0.005457	            1.313838	           -0.077469	           -0.303431	          254.982346	           19.211728	           -0.247489	            0.005556	           -0.688055	            0.001180	           -0.991267	           -0.074687
            1.358000	           -1.290204	          287.782820	          -17.197470	           -0.247809	            0.006225	           -0.406465	           -0.005934	            1.323671	           -0.079101	           -0.399707	          255.717932	           19.402108	           -0.247383	            0.005557	           -0.688179	            0.001470	           -0.940673	           -0.071372
            1.358500	           -0.969500	          288.864476	          -17.193629	           -0.247640	            0.006222	           -0.405763	           -0.004473	            1.332827	           -0.079332	           -0.301834	          254.611889	           19.820479	           -0.246852	            0.005556	           -0.687550	            0.001105	           -0.932125	           -0.072562
            1.359000	           -1.198601	          288.864236	          -17.147204	           -0.247552	            0.006224	           -0.406150	           -0.005414	            1.304786	           -0.077453	           -0.396342	          254.796863	           19.492679	           -0.247503	            0.005555	           -0.687727	            0.001499	           -0.963450	           -0.073707
            1.359500	           -1.106607	          289.043960	          -17.009091	           -0.247588	            0.006223	           -0.405969	           -0.005150	            1.345280	           -0.079164	           -0.165478	          255.718945	           19.355081	           -0.247285	            0.005557	           -0.688184	            0.000666	           -1.028930	           -0.077879
            1.360000	           -1.014855	          288.683446	          -17.010865	           -0.247657	            0.006223	           -0.405831	           -0.004718	            1.342031	           -0.079080	           -0.537598	          254.980831	           19.399540	           -0.247573	            0.005555	           -0.687978	            0.001988	           -0.942720	           -0.071724
            1.360500	           -1.198323	          287.962741	          -17.105213	           -0.247859	            0.006226	           -0.406550	           -0.005410	            1.300070	           -0.077225	           -0.397692	          255.165342	           19.447065	           -0.247404	            0.005556	           -0.687938	            0.001527	           -0.979685	           -0.074665
